<?xml version="1.0" encoding="utf-8"?>
<!-- Generator: Adobe Illustrator 24.2.1, SVG Export Plug-In . SVG Version: 6.00 Build 0)  -->
<svg version="1.1" id="레이어_1" xmlns="http://www.w3.org/2000/svg" xmlns:xlink="http://www.w3.org/1999/xlink" x="0px"
	 y="0px" viewBox="0 0 750 477" style="enable-background:new 0 0 750 477;" xml:space="preserve">
<style type="text/css">
	.st0{fill:#E3E3E3;}
	.st1{fill:#FFFFFF;}
	.st2{fill:#FFFFFF;stroke:#B5B5B5;stroke-width:3;stroke-miterlimit:10;}
	.st3{fill:none;stroke:#B5B5B5;stroke-width:3;stroke-miterlimit:10;}
	.st4{fill:#444545;}
	.st5{font-family:'AdobeMyungjoStd-Medium-KSCpc-EUC-H';}
	.st6{font-size:12px;}
	.st7{stroke:#B5B5B5;stroke-miterlimit:10;}
	.st8{fill:#D6E7F7;}
	.st9{fill:#DD3749;}
	.st10{fill:#F3AD19;}
	.st11{fill:#24A37C;}
</style>
<g>
	<defs>
		<path id="SVGID_1_" d="M862.4-741.2c0,16.6,13.4,30,30,30h690c16.6,0,30-13.4,30-30v-370h-750V-741.2z"/>
	</defs>
	<clipPath id="SVGID_2_">
		<use xlink:href="#SVGID_1_"  style="overflow:visible;"/>
	</clipPath>
	<g style="clip-path:url(#SVGID_2_);">
		
			<image style="overflow:visible;" width="1920" height="3750" xlink:href="../../../../../Downloads/screencapture-baekhyunju-github-io-Project-3-samsungdp-index-html-2023-09-09-14_06_05.png"  transform="matrix(0.4333 0 0 0.4333 821.4042 -1111.1595)">
		</image>
	</g>
</g>
<g>
	<path class="st0" d="M720,0H30C13.5,0,0,13.4,0,30v47h750V30C750,13.4,736.6,0,720,0z"/>
</g>
<path class="st1" d="M660.5,56h-485c-9.7,0-17.5-7.8-17.5-17.5v0c0-9.7,7.8-17.5,17.5-17.5h485c9.7,0,17.5,7.8,17.5,17.5v0
	C678,48.2,670.2,56,660.5,56z"/>
<g>
	<circle class="st1" cx="706" cy="28" r="3"/>
	<circle class="st1" cx="706" cy="38.5" r="3"/>
	<circle class="st1" cx="706" cy="49" r="3"/>
</g>
<g>
	<circle class="st2" cx="655.4" cy="36" r="5.4"/>
	<line class="st3" x1="657.9" y1="40.2" x2="663.5" y2="47.5"/>
</g>
<text transform="matrix(1 0 0 1 180.7073 42.1489)" class="st4 st5 st6">www.hyunju.com/samsungdisplay</text>
<image style="overflow:visible;" width="1917" height="6832" xlink:href="A0372244.png"  transform="matrix(1 0 0 1 1885 -4738)">
</image>
<line class="st7" x1="1507" y1="-155.5" x2="1521" y2="-155.5"/>
<line class="st7" x1="1506.1" y1="-155.1" x2="1511.5" y2="-160.5"/>
<line class="st7" x1="1506.1" y1="-155.5" x2="1511.5" y2="-150.1"/>
<image style="overflow:visible;" width="449" height="272" xlink:href="A0372242.png"  transform="matrix(4.779412e-02 0 0 4.779412e-02 583 -683)">
</image>
<g>
	<g>
		
			<image style="overflow:visible;opacity:0.4;" width="791" height="163" xlink:href="A0372243.png"  transform="matrix(1 0 0 1 -876 67)">
		</image>
		<g>
			<path class="st0" d="M-158.9,102.4h-644c-15.5,0-28,12.5-28,28v43.9h700v-43.9C-130.9,114.9-143.4,102.4-158.9,102.4z"/>
		</g>
	</g>
	<g>
		
			<image style="overflow:visible;opacity:0.3;" width="761" height="434" xlink:href="A037224D.png"  transform="matrix(1 0 0 1 -861 152)">
		</image>
		<g>
			<path class="st8" d="M-830.9,519.6c0,15.5,12.5,28,28,28h644c15.5,0,28-12.5,28-28V174.2h-700V519.6z"/>
		</g>
	</g>
	<circle class="st9" cx="-786.1" cy="138.8" r="8.4"/>
	<circle class="st10" cx="-755.3" cy="138.8" r="8.4"/>
	<circle class="st11" cx="-724.5" cy="138.8" r="8.4"/>
	<path class="st1" d="M-214.4,154.6h-452.7c-9,0-16.3-7.3-16.3-16.3v0c0-9,7.3-16.3,16.3-16.3h452.7c9,0,16.3,7.3,16.3,16.3v0
		C-198.1,147.3-205.4,154.6-214.4,154.6z"/>
	<g>
		<circle class="st1" cx="-172" cy="128.5" r="2.8"/>
		<circle class="st1" cx="-172" cy="138.3" r="2.8"/>
		<circle class="st1" cx="-172" cy="148.1" r="2.8"/>
	</g>
	<g>
		<circle class="st2" cx="-219.2" cy="136" r="5.1"/>
		<line class="st3" x1="-216.9" y1="139.9" x2="-211.6" y2="146.7"/>
	</g>
	<text transform="matrix(1 0 0 1 -662.2583 141.707)" class="st4 st5" style="font-size:11.2px;">www.hyunju.com/melon</text>
</g>
<path class="st8" d="M-839-60c0,16.6,13.4,30,30,30h690c16.6,0,30-13.4,30-30v-370h-750V-60z"/>
<g>
	<g>
		<path class="st0" d="M-1727,346h-690c-16.6,0-30,13.4-30,30v47h750v-47C-1697,359.4-1710.4,346-1727,346z"/>
	</g>
	<g>
		<path class="st8" d="M-2447,793c0,16.6,13.4,30,30,30h690c16.6,0,30-13.4,30-30V423h-750V793z"/>
	</g>
	<circle class="st9" cx="-2399" cy="385" r="9"/>
	<circle class="st10" cx="-2366" cy="385" r="9"/>
	<circle class="st11" cx="-2333" cy="385" r="9"/>
	<path class="st1" d="M-1786.5,402h-485c-9.7,0-17.5-7.8-17.5-17.5v0c0-9.7,7.8-17.5,17.5-17.5h485c9.7,0,17.5,7.8,17.5,17.5v0
		C-1769,394.2-1776.8,402-1786.5,402z"/>
	<g>
		<circle class="st1" cx="-1741" cy="374" r="3"/>
		<circle class="st1" cx="-1741" cy="384.5" r="3"/>
		<circle class="st1" cx="-1741" cy="395" r="3"/>
	</g>
	<g>
		<circle class="st2" cx="-1791.6" cy="382" r="5.4"/>
		<line class="st3" x1="-1789.1" y1="386.2" x2="-1783.5" y2="393.5"/>
	</g>
	<text transform="matrix(1 0 0 1 -2266.3193 388.1489)" class="st4 st5 st6">www.hyunju.com/portfolio</text>
</g>
<g>
	<g>
		<g>
			<path class="st0" d="M-136,1294h-690c-16.6,0-30,13.4-30,30v47h750v-47C-106,1307.4-119.4,1294-136,1294z"/>
		</g>
		<g>
			<path class="st8" d="M-856,1741c0,16.6,13.4,30,30,30h690c16.6,0,30-13.4,30-30v-370h-750V1741z"/>
		</g>
		<circle class="st9" cx="-808" cy="1333" r="9"/>
		<circle class="st10" cx="-775" cy="1333" r="9"/>
		<circle class="st11" cx="-742" cy="1333" r="9"/>
		<path class="st1" d="M-195.5,1350h-485c-9.7,0-17.5-7.8-17.5-17.5l0,0c0-9.7,7.8-17.5,17.5-17.5h485c9.7,0,17.5,7.8,17.5,17.5l0,0
			C-178,1342.2-185.8,1350-195.5,1350z"/>
		<g>
			<circle class="st1" cx="-150" cy="1322" r="3"/>
			<circle class="st1" cx="-150" cy="1332.5" r="3"/>
			<circle class="st1" cx="-150" cy="1343" r="3"/>
		</g>
		<g>
			<circle class="st2" cx="-200.6" cy="1330" r="5.4"/>
			<line class="st3" x1="-198.1" y1="1334.2" x2="-192.5" y2="1341.5"/>
		</g>
		<text transform="matrix(1 0 0 1 -675.3193 1336.1489)" class="st4 st5 st6">www.hyunju.com/usk</text>
	</g>
	<g>
		<defs>
			<path id="SVGID_3_" d="M-856,1741c0,16.6,13.4,30,30,30h690c16.6,0,30-13.4,30-30v-370h-750V1741z"/>
		</defs>
		<clipPath id="SVGID_4_">
			<use xlink:href="#SVGID_3_"  style="overflow:visible;"/>
		</clipPath>
		<g style="clip-path:url(#SVGID_4_);">
			
				<image style="overflow:visible;" width="1909" height="925" xlink:href="A037224F.png"  transform="matrix(0.4324 0 0 0.4324 -893.7568 1371)">
			</image>
		</g>
	</g>
</g>
<g>
	<g>
		<path class="st0" d="M777.8,1055.4h-690c-16.6,0-30,13.4-30,30v47h750v-47C807.8,1068.9,794.4,1055.4,777.8,1055.4z"/>
	</g>
	<g>
		<path class="st8" d="M57.8,1502.4c0,16.6,13.4,30,30,30h690c16.6,0,30-13.4,30-30v-370h-750V1502.4z"/>
	</g>
	<circle class="st9" cx="105.8" cy="1094.4" r="9"/>
	<circle class="st10" cx="138.8" cy="1094.4" r="9"/>
	<circle class="st11" cx="171.8" cy="1094.4" r="9"/>
	<path class="st1" d="M718.3,1111.4h-485c-9.7,0-17.5-7.8-17.5-17.5l0,0c0-9.7,7.8-17.5,17.5-17.5h485c9.7,0,17.5,7.8,17.5,17.5l0,0
		C735.8,1103.6,728,1111.4,718.3,1111.4z"/>
	<g>
		<circle class="st1" cx="763.8" cy="1083.4" r="3"/>
		<circle class="st1" cx="763.8" cy="1093.9" r="3"/>
		<circle class="st1" cx="763.8" cy="1104.4" r="3"/>
	</g>
	<g>
		<circle class="st2" cx="713.2" cy="1091.5" r="5.4"/>
		<line class="st3" x1="715.7" y1="1095.6" x2="721.3" y2="1102.9"/>
	</g>
	<text transform="matrix(1 0 0 1 238.4999 1097.5745)" class="st4 st5 st6">www.hyunju.com/mof</text>
</g>
<g>
	<defs>
		<path id="SVGID_5_" d="M57.5,1502.4c0,16.6,13.4,30,30,30h690c16.6,0,30-13.4,30-30v-370h-750V1502.4z"/>
	</defs>
	<clipPath id="SVGID_6_">
		<use xlink:href="#SVGID_5_"  style="overflow:visible;"/>
	</clipPath>
	<g style="clip-path:url(#SVGID_6_);">
		
			<image style="overflow:visible;" width="1899" height="917" xlink:href="A037224E.png"  transform="matrix(0.4362 0 0 0.4362 18.334 1132.4255)">
		</image>
	</g>
</g>
<g>
	<g>
		<path class="st0" d="M-1001.1,1246.6h-690c-16.6,0-30,13.4-30,30v47h750v-47C-971.1,1260-984.6,1246.6-1001.1,1246.6z"/>
	</g>
	<g>
		<path class="st8" d="M-1721.1,1693.6c0,16.6,13.4,30,30,30h690c16.6,0,30-13.4,30-30v-370h-750V1693.6z"/>
	</g>
	<circle class="st9" cx="-1673.1" cy="1285.6" r="9"/>
	<circle class="st10" cx="-1640.1" cy="1285.6" r="9"/>
	<circle class="st11" cx="-1607.1" cy="1285.6" r="9"/>
	<path class="st1" d="M-1060.6,1302.6h-485c-9.7,0-17.5-7.8-17.5-17.5l0,0c0-9.7,7.8-17.5,17.5-17.5h485c9.7,0,17.5,7.8,17.5,17.5
		l0,0C-1043.1,1294.7-1051,1302.6-1060.6,1302.6z"/>
	<g>
		<circle class="st1" cx="-1015.1" cy="1274.6" r="3"/>
		<circle class="st1" cx="-1015.1" cy="1285.1" r="3"/>
		<circle class="st1" cx="-1015.1" cy="1295.6" r="3"/>
	</g>
	<g>
		<circle class="st2" cx="-1065.7" cy="1282.6" r="5.4"/>
		<line class="st3" x1="-1063.2" y1="1286.8" x2="-1057.6" y2="1294.1"/>
	</g>
	<text transform="matrix(1 0 0 1 -1540.4385 1288.7234)" class="st4 st5 st6">www.hyunju.com/melon</text>
</g>
<g>
	<defs>
		<path id="SVGID_7_" d="M-1721.1,1693.6c0,16.6,13.4,30,30,30h690c16.6,0,30-13.4,30-30v-370h-750V1693.6z"/>
	</defs>
	<clipPath id="SVGID_8_">
		<use xlink:href="#SVGID_7_"  style="overflow:visible;"/>
	</clipPath>
	<g style="clip-path:url(#SVGID_8_);">
		
			<image style="overflow:visible;" width="1903" height="925" xlink:href="A0372241.png"  transform="matrix(0.4324 0 0 0.4324 -1757.119 1323.5745)">
		</image>
	</g>
</g>
<g>
	<g>
		<path class="st0" d="M-1885.3,1223.5h-690c-16.6,0-30,13.4-30,30v47h750v-47C-1855.3,1236.9-1868.7,1223.5-1885.3,1223.5z"/>
	</g>
	<g>
		<path class="st8" d="M-2605.3,1670.5c0,16.6,13.4,30,30,30h690c16.6,0,30-13.4,30-30v-370h-750V1670.5z"/>
	</g>
	<circle class="st9" cx="-2557.3" cy="1262.5" r="9"/>
	<circle class="st10" cx="-2524.3" cy="1262.5" r="9"/>
	<circle class="st11" cx="-2491.3" cy="1262.5" r="9"/>
	<path class="st1" d="M-1944.8,1279.5h-485c-9.7,0-17.5-7.8-17.5-17.5l0,0c0-9.7,7.8-17.5,17.5-17.5h485c9.7,0,17.5,7.8,17.5,17.5
		l0,0C-1927.3,1271.7-1935.1,1279.5-1944.8,1279.5z"/>
	<g>
		<circle class="st1" cx="-1899.3" cy="1251.5" r="3"/>
		<circle class="st1" cx="-1899.3" cy="1262" r="3"/>
		<circle class="st1" cx="-1899.3" cy="1272.5" r="3"/>
	</g>
	<g>
		<circle class="st2" cx="-1949.9" cy="1259.6" r="5.4"/>
		<line class="st3" x1="-1947.4" y1="1263.7" x2="-1941.8" y2="1271"/>
	</g>
	<text transform="matrix(1 0 0 1 -2424.6279 1265.6595)" class="st4 st5 st6">www.hyunju.com/dosiraktong</text>
</g>
<g>
	<defs>
		<path id="SVGID_9_" d="M-2605,1670.5c0,16.6,13.4,30,30,30h690c16.6,0,30-13.4,30-30v-370h-750V1670.5z"/>
	</defs>
	<clipPath id="SVGID_10_">
		<use xlink:href="#SVGID_9_"  style="overflow:visible;"/>
	</clipPath>
	<g style="clip-path:url(#SVGID_10_);">
		
			<image style="overflow:visible;" width="1902" height="927" xlink:href="A0372240.png"  transform="matrix(0.4315 0 0 0.4315 -2640.356 1300.5106)">
		</image>
	</g>
</g>
<g>
	<defs>
		<path id="SVGID_11_" d="M-2447,793c0,16.6,13.4,30,30,30h690c16.6,0,30-13.4,30-30V423h-750V793z"/>
	</defs>
	<clipPath id="SVGID_12_">
		<use xlink:href="#SVGID_11_"  style="overflow:visible;"/>
	</clipPath>
	<g transform="matrix(1 0 0 1 0 0)" style="clip-path:url(#SVGID_12_);">
		
			<image style="overflow:visible;" width="1920" height="4705" xlink:href="../../../../../Downloads/screencapture-127-0-0-1-5500-portfolio-renewal-main-html-2023-07-26-15_20_59.png"  transform="matrix(0.4328 0 0 0.4328 -2488 423)">
		</image>
	</g>
</g>
<circle class="st9" cx="48.1" cy="38.9" r="9"/>
<circle class="st10" cx="81.1" cy="38.9" r="9"/>
<circle class="st11" cx="114.1" cy="38.9" r="9"/>
<g>
	<defs>
		<path id="SVGID_13_" d="M0,447c0,16.6,13.4,30,30,30h690c16.6,0,30-13.4,30-30V77H0V447z"/>
	</defs>
	<clipPath id="SVGID_14_">
		<use xlink:href="#SVGID_13_"  style="overflow:visible;"/>
	</clipPath>
	<g style="clip-path:url(#SVGID_14_);">
		
			<image style="overflow:visible;" width="1920" height="3750" xlink:href="../../../../../Downloads/screencapture-baekhyunju-github-io-Project-3-samsungdp-index-html-2023-09-09-14_06_05.png"  transform="matrix(0.4333 0 0 0.4333 -41 77)">
		</image>
	</g>
</g>
</svg>
